<?xml version="1.0" standalone="no"?>
<!DOCTYPE svg PUBLIC "-//W3C//DTD SVG 20010904//EN"
 "http://www.w3.org/TR/2001/REC-SVG-20010904/DTD/svg10.dtd">
<svg version="1.0" xmlns="http://www.w3.org/2000/svg"
 width="800.000000pt" height="800.000000pt" viewBox="0 0 800.000000 800.000000"
 preserveAspectRatio="xMidYMid meet">
<metadata>
Created by potrace 1.11, written by Peter Selinger 2001-2013
</metadata>
<g transform="translate(0.000000,800.000000) scale(0.100000,-0.100000)"
fill="#000000" stroke="none">
<path d="M1731 7996 c2 -2 63 -34 134 -71 72 -37 158 -83 193 -101 143 -78
194 -105 327 -174 77 -40 158 -83 180 -95 22 -12 85 -46 140 -75 55 -29 136
-72 180 -95 44 -23 134 -71 200 -106 66 -35 147 -77 180 -95 33 -18 101 -53
150 -79 50 -26 93 -50 98 -54 4 -4 -43 -117 -104 -252 -61 -134 -126 -278
-144 -319 -18 -41 -46 -104 -63 -140 -16 -36 -85 -186 -152 -335 -67 -148
-132 -292 -145 -320 -54 -117 -95 -207 -95 -210 0 -2 -18 -41 -39 -87 -22 -46
-57 -123 -79 -173 -41 -93 -84 -189 -129 -285 -14 -30 -70 -154 -125 -275 -54
-121 -101 -221 -103 -224 -3 -2 -10 1 -17 6 -7 6 -85 47 -173 93 -88 45 -164
86 -170 90 -5 4 -77 42 -160 85 -82 43 -172 90 -200 105 -27 15 -104 55 -170
90 -66 35 -142 75 -170 90 -27 15 -104 56 -170 90 -66 35 -124 66 -130 70 -5
4 -57 31 -115 60 -58 29 -117 62 -132 72 -14 10 -31 18 -37 18 -6 0 -28 10
-49 23 -20 13 -102 58 -182 99 -80 42 -187 99 -238 127 -52 28 -88 43 -80 34
7 -10 126 -132 264 -273 139 -140 298 -302 354 -360 57 -58 295 -301 530 -540
727 -740 709 -720 700 -744 -4 -12 -21 -50 -38 -86 -16 -36 -40 -87 -52 -115
-12 -27 -46 -102 -75 -165 -55 -122 -77 -168 -120 -265 -24 -52 -127 -281
-202 -445 -39 -85 -196 -432 -353 -780 -78 -173 -157 -346 -175 -385 -18 -38
-47 -104 -65 -145 -18 -41 -50 -113 -72 -160 -21 -47 -43 -94 -48 -105 -5 -11
-25 -56 -46 -100 -20 -44 -53 -118 -74 -165 -21 -47 -52 -116 -70 -155 -18
-38 -43 -92 -55 -120 -12 -27 -35 -77 -50 -110 -15 -33 -44 -98 -65 -145 -21
-47 -49 -109 -63 -138 l-25 -52 159 -1 c223 0 359 0 747 1 l337 1 140 171 c77
94 152 185 167 202 14 17 81 99 149 181 68 83 131 159 140 170 64 76 135 162
194 235 38 47 77 94 87 105 9 11 65 79 124 150 58 72 123 150 144 175 100 120
301 364 359 435 36 44 70 85 76 91 5 6 62 75 125 152 63 78 118 141 123 142 6
0 235 -230 597 -600 73 -74 325 -331 560 -570 235 -239 478 -487 539 -550 318
-327 514 -519 525 -513 6 4 29 18 51 32 22 14 49 31 60 37 11 6 70 42 130 79
240 148 276 170 293 180 9 6 102 62 205 125 103 63 200 122 215 131 15 9 290
178 612 375 483 296 592 359 628 362 l42 4 0 63 c0 43 -8 84 -26 131 -21 56
-281 763 -394 1074 -62 170 -110 300 -143 390 -41 112 -147 402 -280 765 -52
143 -142 388 -200 545 -58 157 -166 454 -241 660 -75 206 -141 386 -147 399
-5 13 -80 215 -165 450 -227 621 -289 789 -349 951 -29 80 -90 246 -136 370
-45 124 -111 304 -146 400 -35 96 -76 207 -89 245 -14 39 -30 80 -36 91 -10
21 -16 61 -17 112 l-1 22 -1887 0 c-1037 0 -1884 -2 -1882 -4z m3443 -3677 c2
-24 7 -82 11 -129 3 -47 8 -99 10 -115 2 -17 7 -72 10 -124 4 -51 8 -101 10
-110 2 -9 6 -57 9 -107 4 -49 9 -107 11 -129 4 -38 11 -113 20 -235 3 -30 7
-80 10 -110 8 -84 15 -168 20 -240 2 -36 7 -86 11 -112 l6 -48 -94 48 c-51 27
-133 70 -183 97 -49 26 -133 70 -185 98 -52 27 -126 67 -165 87 -38 20 -124
65 -190 100 -66 35 -125 67 -132 72 -10 8 189 257 558 698 16 19 80 97 142
172 61 75 113 135 114 134 1 -1 5 -22 7 -47z"/>
</g>
</svg>
